<svg width="150" height="150" viewBox="0 0 150 150" fill="none" xmlns="http://www.w3.org/2000/svg">
<path d="M0 20C0 8.9543 8.95431 0 20 0H130C141.046 0 150 8.95431 150 20V130C150 141.046 141.046 150 130 150H20C8.9543 150 0 141.046 0 130V20Z" fill="black"/>
<path d="M120 0H135C143.284 0 150 6.71573 150 15V27L136.875 15.75L120 0Z" fill="#5E3AEE"/>
<path d="M69.72 128.724C68.8347 128.724 68.0133 128.585 67.256 128.308C66.4987 128.02 65.8427 127.615 65.288 127.092C64.744 126.569 64.3173 125.956 64.008 125.252C63.6987 124.537 63.544 123.753 63.544 122.9C63.544 122.047 63.6987 121.268 64.008 120.564C64.3173 119.849 64.7493 119.231 65.304 118.708C65.8587 118.185 66.5147 117.785 67.272 117.508C68.04 117.22 68.8773 117.076 69.784 117.076C70.84 117.076 71.784 117.252 72.616 117.604C73.448 117.956 74.136 118.463 74.68 119.124L72.664 120.948C72.28 120.532 71.864 120.223 71.416 120.02C70.9787 119.807 70.488 119.7 69.944 119.7C69.464 119.7 69.0267 119.775 68.632 119.924C68.2373 120.073 67.9013 120.292 67.624 120.58C67.3467 120.857 67.128 121.193 66.968 121.588C66.8187 121.972 66.744 122.409 66.744 122.9C66.744 123.369 66.8187 123.801 66.968 124.196C67.128 124.591 67.3467 124.932 67.624 125.22C67.9013 125.497 68.232 125.716 68.616 125.876C69.0107 126.025 69.4427 126.1 69.912 126.1C70.3813 126.1 70.84 126.025 71.288 125.876C71.736 125.716 72.1893 125.449 72.648 125.076L74.424 127.3C73.784 127.759 73.0427 128.111 72.2 128.356C71.3573 128.601 70.5307 128.724 69.72 128.724ZM71.624 126.884V122.66H74.424V127.3L71.624 126.884ZM76.2885 128.5V119.828H79.3285V128.5H76.2885ZM77.8085 118.868C77.2538 118.868 76.8058 118.713 76.4645 118.404C76.1232 118.095 75.9525 117.711 75.9525 117.252C75.9525 116.793 76.1232 116.409 76.4645 116.1C76.8058 115.791 77.2538 115.636 77.8085 115.636C78.3632 115.636 78.8112 115.785 79.1525 116.084C79.4938 116.372 79.6645 116.745 79.6645 117.204C79.6645 117.684 79.4938 118.084 79.1525 118.404C78.8218 118.713 78.3738 118.868 77.8085 118.868ZM85.1761 128.644C84.0668 128.644 83.2028 128.372 82.5841 127.828C81.9655 127.273 81.6561 126.441 81.6561 125.332V117.892H84.6961V125.3C84.6961 125.609 84.7815 125.855 84.9521 126.036C85.1228 126.207 85.3415 126.292 85.6081 126.292C85.9708 126.292 86.2801 126.201 86.5361 126.02L87.2881 128.148C87.0321 128.319 86.7175 128.441 86.3441 128.516C85.9708 128.601 85.5815 128.644 85.1761 128.644ZM80.3921 122.42V120.148H86.6801V122.42H80.3921Z" fill="white"/>
<path d="M111.4 58.2L78.8 25.6C77.8 24.6 76.4 24 75 24C73.6 24 72.2 24.6 71.2 25.6L64.2 32.6L72.4 40.8C73.2 40.4 74 40.2 75 40.2C78.4 40.2 81 42.8 81 46.2C81 47.2 80.8 48 80.4 48.8L88.4 56.8C89.2 56.4 90 56.2 91 56.2C94.4 56.2 97 58.8 97 62.2C97 65.6 94.4 68.2 91 68.2C87.6 68.2 85 65.6 85 62.2C85 61.2 85.2 60.4 85.6 59.6L77.6 51.6C77.4 51.6 77.2 51.8 77 51.8V72.6C79.4 73.4 81 75.6 81 78.2C81 81.6 78.4 84.2 75 84.2C71.6 84.2 69 81.6 69 78.2C69 75.6 70.6 73.4 73 72.6V51.6C70.6 50.8 69 48.6 69 46C69 45 69.2 44.2 69.6 43.4L61.4 35.2L38.6 58.2C37.6 59.2 37 60.6 37 62C37 63.4 37.6 64.8 38.6 65.8L71.2 98.4C72.2 99.4 73.6 100 75 100C76.4 100 77.8 99.4 78.8 98.4L111.4 65.8C112.4 64.8 113 63.4 113 62C113 60.6 112.4 59.2 111.4 58.2Z" fill="#F4511E"/>
</svg>
