<svg width="45" height="45" viewBox="0 0 45 45" fill="none" xmlns="http://www.w3.org/2000/svg">
<g clip-path="url(#clip0_102_8)">
<path d="M32.7675 0H14.1075C13.3496 0 12.6228 0.301057 12.0869 0.836942C11.5511 1.37283 11.25 2.09964 11.25 2.8575V40.2675C11.25 41.0254 11.5511 41.7522 12.0869 42.2881C12.6228 42.8239 13.3496 43.125 14.1075 43.125H32.7675C33.5254 43.125 34.2522 42.8239 34.7881 42.2881C35.3239 41.7522 35.625 41.0254 35.625 40.2675V2.8575C35.625 2.09964 35.3239 1.37283 34.7881 0.836942C34.2522 0.301057 33.5254 0 32.7675 0ZM33.75 40.2694C33.7495 40.5296 33.6458 40.779 33.4616 40.9629C33.2774 41.1467 33.0278 41.25 32.7675 41.25H26.25V39.375H20.625V41.25H14.1075C13.8472 41.25 13.5976 41.1467 13.4134 40.9629C13.2292 40.779 13.1255 40.5296 13.125 40.2694V37.5H33.75V40.2694ZM33.75 35.625H13.125V5.625H33.75V35.625ZM33.75 3.75H13.125V2.85563C13.1255 2.59537 13.2292 2.34595 13.4134 2.1621C13.5976 1.97826 13.8472 1.875 14.1075 1.875H32.7675C33.0278 1.875 33.2774 1.97826 33.4616 2.1621C33.6458 2.34595 33.7495 2.59537 33.75 2.85563V3.75ZM19.125 14.4375V28.6875L30.375 21.5625L19.125 14.4375ZM20.625 17.1619L27.5719 21.5625L20.625 25.9631V17.1619Z" fill="white"/>
</g>
<defs>
<clipPath id="clip0_102_8">
<rect width="45" height="45" fill="white"/>
</clipPath>
</defs>
</svg>
