<svg width="36" height="36" viewBox="0 0 36 36" fill="none" xmlns="http://www.w3.org/2000/svg">
<g clip-path="url(#clip0_33_26)">
<path d="M30.1843 -0.000488281H5.32664C2.38482 -0.000488281 0 2.38433 0 5.32615V30.1838C0 33.1256 2.38482 35.5105 5.32664 35.5105H30.1843C33.1261 35.5105 35.5109 33.1256 35.5109 30.1838V5.32615C35.5109 2.38433 33.1261 -0.000488281 30.1843 -0.000488281Z" fill="white"/>
<path d="M23.2346 34.6091C24.2056 34.6091 24.0669 35.7882 24.0669 35.7882H11.4438C11.4438 35.7882 11.3051 34.6091 12.2761 34.6091C13.1778 34.6091 13.3858 34.1929 13.3858 33.7768L13.3165 30.3089C8.39211 31.4186 7.35175 28.3669 7.35175 28.3669C6.51947 26.2862 5.40975 25.8007 5.40975 25.8007C3.74517 24.691 5.47911 24.691 5.47911 24.691C7.2824 24.8297 8.2534 26.4943 8.2534 26.4943C9.77926 29.1992 12.3455 28.4363 13.3858 28.0201C13.5246 26.8411 14.0101 26.0781 14.4956 25.5926C10.5422 25.1765 6.45011 23.6506 6.45011 16.8536C6.45011 14.9116 7.14368 13.3164 8.2534 12.0679C8.04533 11.6518 7.49047 9.84851 8.46147 7.42101C8.46147 7.42101 9.91797 6.93551 13.3165 9.2243C16.2295 8.39201 19.2812 8.39201 22.1942 9.2243C25.5927 6.93551 27.0492 7.42101 27.0492 7.42101C28.0202 9.84851 27.4654 11.6518 27.2573 12.0679C28.367 13.3164 29.0606 14.9116 29.0606 16.8536C29.0606 23.6506 24.8992 25.1765 20.9458 25.5926C21.6394 26.1475 22.1942 27.2572 22.1942 28.9218L22.1249 33.7768C22.1249 34.1929 22.3329 34.6091 23.2346 34.6091Z" fill="black"/>
</g>
<defs>
<clipPath id="clip0_33_26">
<rect width="35.5109" height="35.5109" fill="white"/>
</clipPath>
</defs>
</svg>
