<svg width="800" height="800" viewBox="0 0 800 800" fill="none" xmlns="http://www.w3.org/2000/svg">
<g clip-path="url(#clip0_96_7)">
<path d="M400 800C620.914 800 800 620.914 800 400C800 179.086 620.914 0 400 0C179.086 0 0 179.086 0 400C0 620.914 179.086 800 400 800Z" fill="#5E3AEE"/>
<path d="M332.95 538.436L156 431.381V372.095L332.95 265.527V335.355L209.5 401.042L332.95 469.165V538.436Z" fill="white"/>
<path d="M349.325 585.475L413.25 214H450.4L385.775 585.475H349.325Z" fill="white"/>
<path d="M466.775 538.715V469.339L590.375 401.703L466.775 334.833V265.979L643.9 372.548V431.346L466.775 538.715Z" fill="white"/>
</g>
<defs>
<clipPath id="clip0_96_7">
<rect width="800" height="800" fill="white"/>
</clipPath>
</defs>
</svg>
