<svg width="800" height="800" viewBox="0 0 800 800" fill="none" xmlns="http://www.w3.org/2000/svg">
<g clip-path="url(#clip0_96_2)">
<path d="M397.061 799.99C183.908 798.52 -1.42836 621.62 0.00829706 396.87C1.38953 180.612 181.099 -1.46552 403.469 0.00889234C619.585 1.44496 801.916 180.834 799.985 400.607C801.775 618.386 618.545 801.529 397.061 799.99ZM397.061 799.99C183.908 798.52 -1.42836 621.62 0.00829706 396.87C1.38953 180.612 181.099 -1.46552 403.469 0.00889234C619.585 1.44496 801.916 180.834 799.985 400.607C801.775 618.386 618.545 801.529 397.061 799.99Z" fill="white"/>
<path d="M397.452 746.867C212.601 745.591 51.8863 592.184 53.1322 397.286C54.3313 209.746 210.173 51.8491 403.01 53.1328C590.42 54.3782 748.537 209.945 746.862 400.529C748.414 589.382 589.523 748.201 397.452 746.867ZM397.452 746.867C212.601 745.591 51.8863 592.184 53.1322 397.286C54.3313 209.746 210.173 51.8491 403.01 53.1328C590.42 54.3782 748.537 209.945 746.862 400.529C748.414 589.382 589.523 748.201 397.452 746.867Z" fill="#5E3AEE"/>
<path d="M529.148 399.863C528.259 416.395 513.816 430.123 499.582 427.727C499.514 427.727 499.441 427.727 499.369 427.727C483.603 427.748 470.807 414.982 470.79 399.216C471.327 383.408 484.437 370.948 500.25 371.216C516.016 371.293 529.999 384.616 529.148 399.863ZM275.629 560.063C281.573 560.237 287.522 560.11 294.378 560.11V603.191C251.769 610.395 216.671 598.297 208.059 562.28C205.11 549.037 203.297 535.565 202.633 522.012C201.718 507.663 203.301 493.152 202.207 478.829C199.178 439.416 194.071 425.961 156.25 424.097V375.046C158.961 374.412 161.71 373.944 164.476 373.633C185.212 372.612 193.952 366.254 198.59 345.829C200.701 334.352 201.952 322.735 202.322 311.072C203.965 288.518 203.382 265.599 207.139 243.412C212.569 211.327 232.488 195.74 265.39 193.995C274.752 193.493 284.144 193.918 294.752 193.918V237.952C290.386 238.263 286.386 238.897 282.412 238.778C255.599 237.957 254.212 247.089 252.254 269.284C251.033 283.203 252.718 297.361 251.769 311.327C250.778 325.225 248.918 339.05 246.203 352.718C242.335 372.527 230.156 387.259 213.28 399.761C246.041 421.08 249.769 454.208 251.897 487.846C253.041 505.923 252.518 524.127 254.352 542.114C255.782 556.076 261.212 559.637 275.629 560.063ZM303.241 371.216C303.412 371.216 303.578 371.216 303.748 371.216C319.412 371.476 331.905 384.382 331.646 400.05C331.646 400.565 331.629 401.076 331.599 401.586C330.718 416.897 317.595 428.591 302.284 427.71C301.667 427.723 301.054 427.71 300.437 427.68C284.846 426.906 272.833 413.637 273.607 398.046C274.382 382.455 287.65 370.442 303.241 371.216ZM400.854 371.216C417.986 371.084 429.365 382.186 429.454 399.123C429.548 416.514 418.761 427.642 401.739 427.714C384.429 427.791 373.033 416.842 372.939 400.008C372.888 399.148 372.876 398.289 372.901 397.429C373.382 382.472 385.897 370.735 400.854 371.216ZM605.229 349.761C609.786 366.782 618.659 372.765 636.578 373.582C639.514 373.718 642.437 374.216 646.463 374.663V423.701C644.284 424.416 642.05 424.952 639.782 425.301C615.769 426.795 604.824 436.646 602.399 460.723C600.85 476.093 600.978 491.633 599.914 507.059C599.467 523.995 597.927 540.884 595.301 557.62C589.173 587.944 570.242 603.072 538.961 604.918C528.893 605.514 518.752 605.012 507.897 605.012V561.182C513.739 560.82 518.897 560.323 524.067 560.199C542.756 559.752 549.365 553.727 550.28 535.165C551.293 514.774 551.735 494.357 552.646 473.961C553.969 444.48 562.042 418.144 589.505 399.757C573.79 388.552 561.173 374.982 557.905 356.684C553.952 334.506 552.676 311.837 550.548 289.348C549.497 278.106 549.548 266.765 548.45 255.531C547.267 243.403 538.935 239.208 527.897 238.935C521.573 238.782 515.224 238.906 507.139 238.906V196.106C558.731 187.54 594.369 204.706 597.68 254.067C599.067 274.795 598.863 295.62 600.19 316.348C600.773 327.625 602.458 338.816 605.229 349.761Z" fill="white"/>
</g>
<defs>
<clipPath id="clip0_96_2">
<rect width="800" height="800" fill="white"/>
</clipPath>
</defs>
</svg>
