<svg width="36" height="36" viewBox="0 0 36 36" fill="none" xmlns="http://www.w3.org/2000/svg">
<g clip-path="url(#clip0_33_24)">
<rect width="35.5109" height="35.5109" fill="black"/>
<path d="M32.7367 -0.000488281H2.77429C1.2415 -0.000488281 0 1.24101 0 2.7738V32.7362C0 34.269 1.2415 35.5105 2.77429 35.5105H32.7367C34.2695 35.5105 35.5109 34.269 35.5109 32.7362V2.7738C35.5109 1.24101 34.2695 -0.000488281 32.7367 -0.000488281ZM12.7895 25.1832H9.32856V14.1068H12.7895V25.1832ZM10.9654 12.7196H10.9376C9.68228 12.7196 8.8708 11.8735 8.8708 10.7984C8.8708 9.7026 9.71002 8.87725 10.9862 8.87725C12.2624 8.87725 13.0461 9.7026 13.0739 10.7984C13.0808 11.8666 12.2693 12.7196 10.9654 12.7196ZM26.6332 25.1832H22.7076V19.4542C22.7076 17.9561 22.0972 16.9296 20.7448 16.9296C19.7114 16.9296 19.1357 17.6232 18.8721 18.289C18.775 18.5249 18.7889 18.8578 18.7889 19.1976V25.1832H14.898C14.898 25.1832 14.9465 15.0292 14.898 14.1068H18.7889V15.8477C19.0178 15.0847 20.2593 14.0028 22.2429 14.0028C24.7051 14.0028 26.6332 15.598 26.6332 19.0242V25.1832Z" fill="white"/>
</g>
<defs>
<clipPath id="clip0_33_24">
<rect width="35.5109" height="35.5109" fill="white"/>
</clipPath>
</defs>
</svg>
