<svg width="36" height="37" viewBox="0 0 36 37" fill="none" xmlns="http://www.w3.org/2000/svg">
<g clip-path="url(#clip0_33_20)">
<path d="M30.6 -0.000488281H5.4C2.41766 -0.000488281 0 2.43171 0 5.43199V30.7835C0 33.7838 2.41766 36.216 5.4 36.216H30.6C33.5823 36.216 36 33.7838 36 30.7835V5.43199C36 2.43171 33.5823 -0.000488281 30.6 -0.000488281Z" fill="white"/>
<path d="M8.6484 27.799L9.63277 23.2012C8.36756 21.1937 7.874 18.7906 8.24469 16.443C8.61537 14.0953 9.82484 11.9645 11.6462 10.4501C13.4675 8.93577 15.7755 8.14205 18.1371 8.21786C20.4988 8.29367 22.7518 9.23381 24.4734 10.8619C26.1951 12.49 27.267 14.6941 27.4882 17.0607C27.7093 19.4274 27.0645 21.7939 25.6746 23.7162C24.2848 25.6386 22.2454 26.9846 19.9392 27.5019C17.633 28.0192 15.2183 27.6721 13.1484 26.5258L8.6484 27.799Z" fill="white" stroke="black" stroke-width="1.80329"/>
<path d="M21.6563 19.3107C21.4453 19.1692 21.2344 19.0985 21.0235 19.3814L20.1797 20.5132C19.9688 20.6547 19.8282 20.7254 19.5469 20.5839C18.4922 20.0181 17.0157 19.3814 15.75 17.2594C15.6797 16.9764 15.8203 16.835 15.961 16.6935L16.5938 15.7032C16.7344 15.5617 16.6641 15.4203 16.5938 15.2788L15.75 13.2275C15.5391 12.6616 15.3282 12.7323 15.1172 12.7323H14.5547C14.4141 12.7323 14.1328 12.8031 13.8516 13.086C12.3047 14.6422 12.9375 16.835 14.0625 18.2497C14.2735 18.5326 15.6797 21.0791 18.7032 22.4231C20.9532 23.4134 21.4453 23.2719 22.0782 23.1304C22.8516 23.0597 23.625 22.4231 23.9766 21.7864C24.0469 21.5742 24.3985 20.6547 24.1172 20.5132" fill="black"/>
</g>
<defs>
<clipPath id="clip0_33_20">
<rect width="36" height="36.2165" fill="white"/>
</clipPath>
</defs>
</svg>
