<svg width="150" height="150" viewBox="0 0 150 150" fill="none" xmlns="http://www.w3.org/2000/svg">
<path d="M0 20C0 8.9543 8.95431 0 20 0H130C141.046 0 150 8.95431 150 20V130C150 141.046 141.046 150 130 150H20C8.9543 150 0 141.046 0 130V20Z" fill="black"/>
<path d="M120 0H135C143.284 0 150 6.71573 150 15V27L136.875 15.75L120 0Z" fill="#5E3AEE"/>
<path d="M65.704 128.724C64.8187 128.724 63.9973 128.585 63.24 128.308C62.4933 128.02 61.8427 127.615 61.288 127.092C60.744 126.569 60.3173 125.956 60.008 125.252C59.6987 124.537 59.544 123.753 59.544 122.9C59.544 122.047 59.6987 121.268 60.008 120.564C60.3173 119.849 60.744 119.231 61.288 118.708C61.8427 118.185 62.4933 117.785 63.24 117.508C63.9973 117.22 64.8187 117.076 65.704 117.076C66.7387 117.076 67.6613 117.257 68.472 117.62C69.2933 117.983 69.976 118.505 70.52 119.188L68.504 121.012C68.1413 120.585 67.7413 120.26 67.304 120.036C66.8773 119.812 66.3973 119.7 65.864 119.7C65.4053 119.7 64.984 119.775 64.6 119.924C64.216 120.073 63.8853 120.292 63.608 120.58C63.3413 120.857 63.128 121.193 62.968 121.588C62.8187 121.983 62.744 122.42 62.744 122.9C62.744 123.38 62.8187 123.817 62.968 124.212C63.128 124.607 63.3413 124.948 63.608 125.236C63.8853 125.513 64.216 125.727 64.6 125.876C64.984 126.025 65.4053 126.1 65.864 126.1C66.3973 126.1 66.8773 125.988 67.304 125.764C67.7413 125.54 68.1413 125.215 68.504 124.788L70.52 126.612C69.976 127.284 69.2933 127.807 68.472 128.18C67.6613 128.543 66.7387 128.724 65.704 128.724ZM75.7591 128.724C74.8418 128.724 73.9565 128.612 73.1031 128.388C72.2605 128.153 71.5725 127.855 71.0391 127.492L72.0791 125.156C72.5805 125.476 73.1565 125.743 73.8071 125.956C74.4685 126.159 75.1245 126.26 75.7751 126.26C76.2125 126.26 76.5645 126.223 76.8311 126.148C77.0978 126.063 77.2898 125.956 77.4071 125.828C77.5351 125.689 77.5991 125.529 77.5991 125.348C77.5991 125.092 77.4818 124.889 77.2471 124.74C77.0125 124.591 76.7085 124.468 76.3351 124.372C75.9618 124.276 75.5458 124.18 75.0871 124.084C74.6391 123.988 74.1858 123.865 73.7271 123.716C73.2791 123.567 72.8685 123.375 72.4951 123.14C72.1218 122.895 71.8178 122.58 71.5831 122.196C71.3485 121.801 71.2311 121.305 71.2311 120.708C71.2311 120.036 71.4125 119.428 71.7751 118.884C72.1485 118.34 72.7031 117.903 73.4391 117.572C74.1751 117.241 75.0925 117.076 76.1911 117.076C76.9271 117.076 77.6471 117.161 78.3511 117.332C79.0658 117.492 79.7005 117.732 80.2551 118.052L79.2791 120.404C78.7458 120.116 78.2178 119.903 77.6951 119.764C77.1725 119.615 76.6658 119.54 76.1751 119.54C75.7378 119.54 75.3858 119.588 75.1191 119.684C74.8525 119.769 74.6605 119.887 74.5431 120.036C74.4258 120.185 74.3671 120.356 74.3671 120.548C74.3671 120.793 74.4791 120.991 74.7031 121.14C74.9378 121.279 75.2418 121.396 75.6151 121.492C75.9991 121.577 76.4151 121.668 76.8631 121.764C77.3218 121.86 77.7751 121.983 78.2231 122.132C78.6818 122.271 79.0978 122.463 79.4711 122.708C79.8445 122.943 80.1431 123.257 80.3671 123.652C80.6018 124.036 80.7191 124.521 80.7191 125.108C80.7191 125.759 80.5325 126.361 80.1591 126.916C79.7965 127.46 79.2471 127.897 78.5111 128.228C77.7858 128.559 76.8685 128.724 75.7591 128.724ZM86.1185 128.724C85.2012 128.724 84.3158 128.612 83.4625 128.388C82.6198 128.153 81.9318 127.855 81.3985 127.492L82.4385 125.156C82.9398 125.476 83.5158 125.743 84.1665 125.956C84.8278 126.159 85.4838 126.26 86.1345 126.26C86.5718 126.26 86.9238 126.223 87.1905 126.148C87.4572 126.063 87.6492 125.956 87.7665 125.828C87.8945 125.689 87.9585 125.529 87.9585 125.348C87.9585 125.092 87.8412 124.889 87.6065 124.74C87.3718 124.591 87.0678 124.468 86.6945 124.372C86.3212 124.276 85.9052 124.18 85.4465 124.084C84.9985 123.988 84.5452 123.865 84.0865 123.716C83.6385 123.567 83.2278 123.375 82.8545 123.14C82.4812 122.895 82.1772 122.58 81.9425 122.196C81.7078 121.801 81.5905 121.305 81.5905 120.708C81.5905 120.036 81.7718 119.428 82.1345 118.884C82.5078 118.34 83.0625 117.903 83.7985 117.572C84.5345 117.241 85.4518 117.076 86.5505 117.076C87.2865 117.076 88.0065 117.161 88.7105 117.332C89.4252 117.492 90.0598 117.732 90.6145 118.052L89.6385 120.404C89.1052 120.116 88.5772 119.903 88.0545 119.764C87.5318 119.615 87.0252 119.54 86.5345 119.54C86.0972 119.54 85.7452 119.588 85.4785 119.684C85.2118 119.769 85.0198 119.887 84.9025 120.036C84.7852 120.185 84.7265 120.356 84.7265 120.548C84.7265 120.793 84.8385 120.991 85.0625 121.14C85.2972 121.279 85.6012 121.396 85.9745 121.492C86.3585 121.577 86.7745 121.668 87.2225 121.764C87.6812 121.86 88.1345 121.983 88.5825 122.132C89.0412 122.271 89.4572 122.463 89.8305 122.708C90.2038 122.943 90.5025 123.257 90.7265 123.652C90.9612 124.036 91.0785 124.521 91.0785 125.108C91.0785 125.759 90.8918 126.361 90.5185 126.916C90.1558 127.46 89.6065 127.897 88.8705 128.228C88.1452 128.559 87.2278 128.724 86.1185 128.724Z" fill="white"/>
<path d="M48.5 91L43 22.25H109L103.5 91L76 99.25L48.5 91Z" fill="#1172B8"/>
<path d="M103.5 27.75H76V95.125L98 88.25L103.5 27.75Z" fill="#33AADD"/>
<path d="M85.625 62.125H58.125L56.75 52.5L78.75 45.625H56.75L55.375 37.375H98L96.625 47L78.75 53.875H95.25L92.5 80L76 85.5L59.5 80L58.125 66.25H66.375L67.75 73.125L76 75.875L84.25 73.125L85.625 62.125Z" fill="white"/>
</svg>
