<svg width="150" height="150" viewBox="0 0 150 150" fill="none" xmlns="http://www.w3.org/2000/svg">
<path d="M0 20C0 8.9543 8.95431 0 20 0H130C141.046 0 150 8.95431 150 20V130C150 141.046 141.046 150 130 150H20C8.9543 150 0 141.046 0 130V20Z" fill="black"/>
<path d="M120 0H135C143.284 0 150 6.71573 150 15V27L136.875 15.75L120 0Z" fill="#5E3AEE"/>
<path d="M59.608 117.3H62.776V128.5H59.608V117.3ZM55.288 128.5H52.12V117.3H55.288V128.5ZM59.832 124.132H55.064V121.508H59.832V124.132ZM67.3946 128.5V119.812H63.9546V117.3H73.9866V119.812H70.5626V128.5H67.3946ZM75.1669 128.5V117.3H77.7749L82.4149 124.916H81.0389L85.5509 117.3H88.1589L88.1909 128.5H85.2789L85.2469 121.732H85.7429L82.3669 127.396H80.9589L77.4869 121.732H78.0949V128.5H75.1669ZM90.4325 128.5V117.3H93.6005V125.988H98.9445V128.5H90.4325Z" fill="white"/>
<path d="M47.5995 95.5028L41.2798 24.625H110.72L104.392 95.4916L75.9579 103.375L47.5995 95.5028Z" fill="#E44F26"/>
<path d="M76 97.3507L98.9781 90.9804L104.384 30.4216H76V97.3507Z" fill="#F1662A"/>
<path d="M76 56.7073H64.4969L63.7038 47.8057H76V39.1123H75.9691H54.2031L54.4113 41.4467L56.5459 65.4007H76V56.7073Z" fill="#EBEBEB"/>
<path d="M76 79.2832L75.9606 79.2944L66.28 76.6816L65.6613 69.7488H60.956H56.9341L58.1519 83.395L75.9606 88.3394L76 88.3282V79.2832Z" fill="#EBEBEB"/>
<path d="M75.969 56.7073V65.4007H86.6734L85.6665 76.676L75.969 79.2916V88.3366L93.7918 83.3951L93.9212 81.927L95.9631 59.0417L96.1768 56.7073H93.834H75.969Z" fill="white"/>
<path d="M75.969 39.1123V44.5123V47.7861V47.8057H96.939H96.9671L97.1415 45.8539L97.5381 41.4467L97.7462 39.1123H75.969Z" fill="white"/>
</svg>
