<svg width="45" height="45" viewBox="0 0 45 45" fill="none" xmlns="http://www.w3.org/2000/svg">
<g clip-path="url(#clip0_33_55)">
<path d="M3.08443 3.81817C1.89962 3.81817 0.922363 4.79542 0.922363 5.98023V39.132C0.922363 40.3168 1.89962 41.294 3.08443 41.294H42.0017C43.1865 41.294 44.1637 40.3168 44.1637 39.132V13.1871C44.1637 12.0023 43.1865 11.0251 42.0017 11.0251H23.2637C22.7261 11.0251 22.5142 11.0222 22.2548 10.9069C21.9924 10.7916 21.5917 10.4961 20.8912 9.79412L16.5671 5.46999C15.8464 4.7493 15.4688 4.33994 14.9383 4.07473C14.4036 3.80808 13.8948 3.81817 13.1741 3.81817H3.08443ZM3.08443 5.25954H13.1741C13.8948 5.25954 14.1067 5.26963 14.294 5.36332C14.4814 5.45846 14.8273 5.76979 15.548 6.49048L19.8722 10.8146C20.6159 11.5584 21.119 11.9821 21.671 12.2272C22.2216 12.4722 22.7275 12.4664 23.2637 12.4664H42.0017C42.4139 12.4664 42.7224 12.7749 42.7224 13.1871V39.132C42.7224 39.5442 42.4139 39.8526 42.0017 39.8526H3.08443C2.6722 39.8526 2.36374 39.5442 2.36374 39.132V5.98023C2.36374 5.568 2.6722 5.25954 3.08443 5.25954Z" fill="white"/>
</g>
<defs>
<clipPath id="clip0_33_55">
<rect x="0.922363" y="0.935303" width="43.2414" height="43.2414" rx="9.00862" fill="white"/>
</clipPath>
</defs>
</svg>
