<svg width="57" height="56" viewBox="0 0 57 56" fill="none" xmlns="http://www.w3.org/2000/svg">
<g clip-path="url(#clip0_33_49)">
<path d="M42.8083 35.4082C40.2483 35.4082 38.1538 37.5027 38.1538 40.0626C38.1538 42.6226 40.2483 44.7171 42.8083 44.7171C43.877 44.7171 44.7818 44.2591 45.601 43.6C46.4202 44.2591 47.325 44.7171 48.3936 44.7171C50.9536 44.7171 53.0481 42.6226 53.0481 40.0626C53.0481 37.5027 50.9536 35.4082 48.3936 35.4082C47.325 35.4082 46.4202 35.855 45.601 36.5159C44.7818 35.855 43.877 35.41 42.8083 35.4082ZM42.8083 37.27C43.6089 37.27 44.3722 37.6162 44.9028 38.2195C45.2752 38.6384 45.9268 38.6384 46.2991 38.2195C46.8297 37.6162 47.5912 37.27 48.3936 37.27C49.9464 37.27 51.1863 38.5099 51.1863 40.0626C51.1863 41.6153 49.9464 42.8553 48.3936 42.8553C47.5931 42.8553 46.8297 42.509 46.2991 41.9058C45.9268 41.4869 45.2752 41.4869 44.9028 41.9058C44.3722 42.509 43.6107 42.8553 42.8083 42.8553C41.2556 42.8553 40.0156 41.6153 40.0156 40.0626C40.0156 38.5099 41.2556 37.27 42.8083 37.27ZM29.7758 39.1317H33.4994C34.0151 39.1317 34.4303 39.5469 34.4303 40.0626C34.4303 40.5783 34.0151 40.9935 33.4994 40.9935H29.7758C29.2601 40.9935 28.8449 40.5783 28.8449 40.0626C28.8449 39.5469 29.2601 39.1317 29.7758 39.1317ZM22.3287 39.1317H26.0523C26.568 39.1317 26.9832 39.5469 26.9832 40.0626C26.9832 40.5783 26.568 40.9935 26.0523 40.9935H22.3287C21.813 40.9935 21.3978 40.5783 21.3978 40.0626C21.3978 39.5469 21.813 39.1317 22.3287 39.1317ZM14.8816 39.1317H18.6051C19.1209 39.1317 19.536 39.5469 19.536 40.0626C19.536 40.5783 19.1209 40.9935 18.6051 40.9935H14.8816C14.3659 40.9935 13.9507 40.5783 13.9507 40.0626C13.9507 39.5469 14.3659 39.1317 14.8816 39.1317ZM27.914 29.8228H50.2554C50.7711 29.8228 51.1863 30.238 51.1863 30.7537C51.1863 31.2694 50.7711 31.6846 50.2554 31.6846H27.914C27.3983 31.6846 26.9832 31.2694 26.9832 30.7537C26.9832 30.238 27.3983 29.8228 27.914 29.8228ZM37.223 24.2375H50.2554C50.7711 24.2375 51.1863 24.6527 51.1863 25.1684C51.1863 25.6841 50.7711 26.0993 50.2554 26.0993H37.223C36.7072 26.0993 36.2921 25.6841 36.2921 25.1684C36.2921 24.6527 36.7072 24.2375 37.223 24.2375ZM27.914 24.2375H33.4994C34.0151 24.2375 34.4303 24.6527 34.4303 25.1684C34.4303 25.6841 34.0151 26.0993 33.4994 26.0993H27.914C27.3983 26.0993 26.9832 25.6841 26.9832 25.1684C26.9832 24.6527 27.3983 24.2375 27.914 24.2375ZM14.8816 22.3757C14.3677 22.3757 13.9507 22.7927 13.9507 23.3066V32.6155C13.9507 33.1293 14.3677 33.5464 14.8816 33.5464H22.3287C22.8426 33.5464 23.2596 33.1293 23.2596 32.6155V23.3066C23.2596 22.7927 22.8426 22.3757 22.3287 22.3757H14.8816ZM15.8125 24.2375H21.3978V31.6846H15.8125V24.2375ZM13.0198 18.6521C11.4894 18.6521 10.2271 19.9144 10.2271 21.4448V45.648C10.2271 47.1784 11.4894 48.4406 13.0198 48.4406H53.979C55.5094 48.4406 56.7717 47.1784 56.7717 45.648V21.4448C56.7717 19.9144 55.5094 18.6521 53.979 18.6521H13.0198ZM13.0198 20.5139H53.979C54.5115 20.5139 54.9099 20.9123 54.9099 21.4448V45.648C54.9099 46.1804 54.5115 46.5789 53.979 46.5789H13.0198C12.4873 46.5789 12.0889 46.1804 12.0889 45.648V21.4448C12.0889 20.9123 12.4873 20.5139 13.0198 20.5139ZM3.71089 7.48145C2.1805 7.48145 0.918213 8.74373 0.918213 10.2741V34.4773C0.918213 36.0077 2.1805 37.27 3.71089 37.27H7.43445C8.68557 37.27 8.65019 35.4082 7.43445 35.4082H3.71089C3.17842 35.4082 2.77999 35.0097 2.77999 34.4773V22.3757H5.57267C6.08838 22.3757 6.50356 21.9605 6.50356 21.4448C6.50356 20.9291 6.08838 20.5139 5.57267 20.5139H2.77999V14.9286H47.4628V15.8595C47.4628 17.1106 49.3245 17.0827 49.3245 15.8595V10.2741C49.3245 8.74373 48.0622 7.48145 46.5319 7.48145H3.71089ZM3.71089 9.34323H46.5319C47.0643 9.34323 47.4628 9.74165 47.4628 10.2741V13.0668H2.77999V10.2741C2.77999 9.74165 3.17842 9.34323 3.71089 9.34323Z" fill="white"/>
</g>
<defs>
<clipPath id="clip0_33_49">
<rect x="0.918213" y="0.0344238" width="55.8534" height="55.8534" rx="9.00862" fill="white"/>
</clipPath>
</defs>
</svg>
