<svg width="45" height="45" viewBox="0 0 45 45" fill="none" xmlns="http://www.w3.org/2000/svg">
<g clip-path="url(#clip0_33_61)">
<path d="M4.52166 12.4662H40.5561C40.9554 12.4662 41.2768 12.7876 41.2768 13.1869C41.2768 13.5862 40.9554 13.9076 40.5561 13.9076H4.52166C4.1224 13.9076 3.80097 13.5862 3.80097 13.1869C3.80097 12.7876 4.1224 12.4662 4.52166 12.4662ZM11.0079 10.3041C11.0079 10.4953 10.9319 10.6786 10.7968 10.8137C10.6616 10.9489 10.4783 11.0248 10.2872 11.0248C10.096 11.0248 9.91273 10.9489 9.77757 10.8137C9.64242 10.6786 9.56649 10.4953 9.56649 10.3041C9.56649 10.113 9.64242 9.92968 9.77757 9.79453C9.91273 9.65937 10.096 9.58344 10.2872 9.58344C10.4783 9.58344 10.6616 9.65937 10.7968 9.79453C10.9319 9.92968 11.0079 10.113 11.0079 10.3041ZM8.12511 10.3041C8.12511 10.4953 8.04918 10.6786 7.91402 10.8137C7.77887 10.9489 7.59556 11.0248 7.40442 11.0248C7.21328 11.0248 7.02997 10.9489 6.89482 10.8137C6.75966 10.6786 6.68373 10.4953 6.68373 10.3041C6.68373 10.113 6.75966 9.92968 6.89482 9.79453C7.02997 9.65937 7.21328 9.58344 7.40442 9.58344C7.59556 9.58344 7.77887 9.65937 7.91402 9.79453C8.04918 9.92968 8.12511 10.113 8.12511 10.3041ZM5.24235 10.3041C5.24235 10.4953 5.16642 10.6786 5.03127 10.8137C4.89611 10.9489 4.7128 11.0248 4.52166 11.0248C4.33052 11.0248 4.14721 10.9489 4.01206 10.8137C3.8769 10.6786 3.80097 10.4953 3.80097 10.3041C3.80097 10.113 3.8769 9.92968 4.01206 9.79453C4.14721 9.65937 4.33052 9.58344 4.52166 9.58344C4.7128 9.58344 4.89611 9.65937 5.03127 9.79453C5.16642 9.92968 5.24235 10.113 5.24235 10.3041ZM3.08028 6.70068C1.89547 6.70068 0.918213 7.67794 0.918213 8.86275V36.249C0.918213 37.4338 1.89547 38.411 3.08028 38.411H41.9975C43.1823 38.411 44.1596 37.4338 44.1596 36.249V8.86275C44.1596 7.67794 43.1823 6.70068 41.9975 6.70068H3.08028ZM3.08028 8.14206H41.9975C42.4098 8.14206 42.7182 8.45052 42.7182 8.86275V36.249C42.7182 36.6612 42.4098 36.9696 41.9975 36.9696H3.08028C2.66805 36.9696 2.35959 36.6612 2.35959 36.249V8.86275C2.35959 8.45052 2.66805 8.14206 3.08028 8.14206Z" fill="white"/>
</g>
<defs>
<clipPath id="clip0_33_61">
<rect x="0.918213" y="0.935303" width="43.2414" height="43.2414" rx="9.00862" fill="white"/>
</clipPath>
</defs>
</svg>
